<svg width="16" height="16" viewBox="0 0 16 16" xmlns="http://www.w3.org/2000/svg"><path d="M8.01871924 14.7c-.13114225 0-.2810396-.0560544-.39342675-.149526l-6.29507903-5.96176C.48713052 7.76639242 0 6.70110893 0 5.56109819 0 4.42108746.46837543 3.3371311 1.33021346 2.53348238c1.74239531-1.64464317 4.57143882-1.64464317 6.31379827 0L8 2.86988016l.35598827-.33639778c1.74239533-1.64464317 4.57143883-1.64464317 6.31379823 0C15.5316246 3.33709533 16 4.42105169 16 5.56109819c0 1.14004651-.4683754 2.22396709-1.3302135 3.02761581l-6.25760465 5.96176c-.11242301.0934359-.26232036.149526-.39346261.149526zM4.49649014 2.402665c-.86183803 0-1.72364021.31772491-2.37938732.93443033-.63699201.59803255-.97422519 1.38297264-.97422519 2.22396709 0 .84099446.35598828 1.62593454.97422519 2.22396709l5.90161642 5.58805219 5.90165226-5.58798064c.636992-.59803256.9742252-1.38297264.9742252-2.22396709 0-.84099446-.3559883-1.62593454-.9742252-2.22396709-1.3114583-1.25215525-3.4473163-1.25215525-4.77752973 0l-.74941502.71017707c-.22481016.20558039-.56204334.20558039-.76813426 0l-.74941503-.71017707C6.22013035 2.70168127 5.35829232 2.402665 4.49649014 2.402665z"/><path d="M14.7622605 2.4904336c1.6503193 1.5872448 1.6503193 4.13090284 0 5.71814764l-.8050319.77327112L8 14.7 2.04277141 8.98185236l-.80503193-.77327112c-1.6503193-1.5872448-1.6503193-4.13090284 0-5.71814764 1.65031931-1.5872448 4.30690928-1.5872448 5.95722859 0L8 3.26370471l.80503193-.77327111c1.65031927-1.5872448 4.30690927-1.5872448 5.95722857 0z" data-fill="true"/></svg>