<svg width="118" height="27" viewBox="0 0 118 27" xmlns="http://www.w3.org/2000/svg"><path d="M111.063 26.6226c.985 0 1.9-.1549 2.745-.4645.844-.3097 1.578-.7452 2.201-1.3065.624-.5613 1.106-1.2387 1.448-2.0322.362-.7936.543-1.6742.543-2.642 0-.929-.171-1.7903-.513-2.5839-.342-.7935-.814-1.4709-1.417-2.0322-.603-.5613-1.327-.9968-2.172-1.3065-.844-.329-1.779-.4935-2.805-.4935h-2.744V5.77742h-3.408V26.6226h6.122zm-2.714-3.542v-5.7774h3.257c.845 0 1.548.271 2.111.8129.583.5226.875 1.2194.875 2.0904 0 .8129-.282 1.5-.845 2.0612-.542.542-1.256.8129-2.141.8129h-3.257zM98.1819 5.77742V26.6226H94.804V9.31936h-6.3938c-.0805 3.00004-.2715 5.59354-.5731 7.78064-.3016 2.1871-.7339 3.9968-1.2968 5.429-.563 1.4323-1.2668 2.4968-2.1112 3.1936-.8244.6774-1.8096 1.0161-2.9557 1.0161-.2212 0-.4423-.0193-.6635-.0581-.2212-.0387-.4021-.0871-.5429-.1451l-.6032-3.0194c.6032-.0387 1.1561-.1451 1.6588-.3193.5027-.1936.945-.5129 1.327-.9581.4022-.4645.754-1.0935 1.0556-1.8871.3016-.8129.553-1.8677.754-3.1645.2011-1.3161.3519-2.9032.4524-4.7613.1207-1.8581.191-4.07419.2111-6.64838h13.0592zm-33.6917 0h11.7623v3.54194h-8.3543v4.81934h7.4495v3.5419h-7.4495v5.4h8.3543v3.542H64.4902V5.77742zM59.3585 23.1677c-.6434 1.1033-1.6789 2.0226-3.1065 2.7581C54.8245 26.6419 53.1154 27 51.1249 27c-1.4477 0-2.825-.2613-4.1319-.7839-1.3069-.5226-2.4631-1.258-3.4684-2.2064-.9852-.9484-1.7694-2.0807-2.3525-3.3968-.583-1.3355-.8746-2.8064-.8746-4.4129 0-1.6258.2916-3.0968.8746-4.4129.5831-1.3355 1.3673-2.46774 2.3525-3.39678 1.0053-.94838 2.1615-1.68387 3.4684-2.20645C48.2999 5.66129 49.6772 5.4 51.1249 5.4c.9651 0 1.8699.10645 2.7144.31936.8645.19354 1.6386.46451 2.3223.8129.7037.34839 1.3069.75484 1.8095 1.21935.5027.44516.9048.91936 1.2064 1.42259l-1.0556 2.9323c-.3217-.4259-.7137-.8323-1.1762-1.2194-.4423-.3871-.955-.7258-1.5381-1.01613-.563-.29032-1.1863-.5129-1.8699-.66774-.6837-.1742-1.4075-.26129-2.1716-.26129-1.1259 0-2.1513.17419-3.0762.52258-.9249.32903-1.7292.80318-2.4128 1.42258-.6635.6194-1.1863 1.3839-1.5683 2.2935-.362.8904-.5429 1.8968-.5429 3.0194s.1809 2.129.5429 3.0194c.382.8903.9048 1.6548 1.5683 2.2935.6836.6194 1.4879 1.1032 2.4128 1.4516.9249.3291 1.9503.4936 3.0762.4936 1.6488 0 3.0562-.3194 4.2224-.9581 1.1863-.6581 2.1012-1.4226 2.7446-2.2935l1.0254 2.9612zM24.0984 5.77742h11.7623v3.54194h-8.3543v4.81934h7.4495v3.5419h-7.4495v5.4h8.3543v3.542H24.0984V5.77742zm1.2969-2.26452c-.4022-.38709-.6032-.87096-.6032-1.45161 0-.58064.201-1.064515.6032-1.451612C25.7974.203226 26.3001 0 26.9033 0c.6031 0 1.1058.203226 1.5079.609678.4022.387097.6032.870972.6032 1.451612 0 .58065-.201 1.06452-.6032 1.45161-.4021.3871-.9048.58065-1.5079.58065-.6032 0-1.1059-.19355-1.508-.58065zm6.1224 0c-.4021-.38709-.6032-.87096-.6032-1.45161 0-.58064.2011-1.064515.6032-1.451612C31.9198.203226 32.4225 0 33.0257 0s1.1059.203226 1.508.609678c.4222.387097.6333.870972.6333 1.451612 0 .58065-.2111 1.06452-.6333 1.45161-.4021.3871-.9048.58065-1.508.58065S31.9198 3.9 31.5177 3.5129zM0 5.77742h17.3419V26.6226h-3.4081V9.31936H3.40806V26.6226H0V5.77742z"/></svg>